<svg width="100" height="100" viewBox="0 0 100 100" fill="none" xmlns="http://www.w3.org/2000/svg">
<path d="M20.8333 79.1667H26.7708L67.5 38.4375L61.5625 32.5L20.8333 73.2292V79.1667ZM12.5 87.5V69.7917L67.5 14.8958C68.3333 14.1319 69.2535 13.5417 70.2604 13.125C71.2674 12.7083 72.3264 12.5 73.4375 12.5C74.5486 12.5 75.625 12.7083 76.6667 13.125C77.7083 13.5417 78.6111 14.1667 79.375 15L85.1042 20.8333C85.9375 21.5972 86.5451 22.5 86.9271 23.5417C87.309 24.5833 87.5 25.625 87.5 26.6667C87.5 27.7778 87.309 28.8368 86.9271 29.8437C86.5451 30.8507 85.9375 31.7708 85.1042 32.6042L30.2083 87.5H12.5ZM64.4792 35.5208L61.5625 32.5L67.5 38.4375L64.4792 35.5208Z" fill="#1D1B20"/>
</svg>
