<svg width="100" height="100" viewBox="0 0 100 100" fill="none" xmlns="http://www.w3.org/2000/svg">
<path d="M25 58.3334C22.7083 58.3334 20.7465 57.5174 19.1146 55.8854C17.4826 54.2535 16.6667 52.2917 16.6667 50C16.6667 47.7084 17.4826 45.7465 19.1146 44.1146C20.7465 42.4827 22.7083 41.6667 25 41.6667C27.2917 41.6667 29.2535 42.4827 30.8854 44.1146C32.5174 45.7465 33.3333 47.7084 33.3333 50C33.3333 52.2917 32.5174 54.2535 30.8854 55.8854C29.2535 57.5174 27.2917 58.3334 25 58.3334ZM50 58.3334C47.7083 58.3334 45.7465 57.5174 44.1146 55.8854C42.4826 54.2535 41.6667 52.2917 41.6667 50C41.6667 47.7084 42.4826 45.7465 44.1146 44.1146C45.7465 42.4827 47.7083 41.6667 50 41.6667C52.2917 41.6667 54.2535 42.4827 55.8854 44.1146C57.5174 45.7465 58.3333 47.7084 58.3333 50C58.3333 52.2917 57.5174 54.2535 55.8854 55.8854C54.2535 57.5174 52.2917 58.3334 50 58.3334ZM75 58.3334C72.7083 58.3334 70.7465 57.5174 69.1146 55.8854C67.4826 54.2535 66.6667 52.2917 66.6667 50C66.6667 47.7084 67.4826 45.7465 69.1146 44.1146C70.7465 42.4827 72.7083 41.6667 75 41.6667C77.2917 41.6667 79.2535 42.4827 80.8854 44.1146C82.5174 45.7465 83.3333 47.7084 83.3333 50C83.3333 52.2917 82.5174 54.2535 80.8854 55.8854C79.2535 57.5174 77.2917 58.3334 75 58.3334Z" fill="#1D1B20"/>
</svg>
