<svg width="100" height="100" viewBox="0 0 100 100" fill="none" xmlns="http://www.w3.org/2000/svg">
<path d="M50 50C45.4167 50 41.4931 48.3681 38.2292 45.1042C34.9653 41.8403 33.3334 37.9167 33.3334 33.3334C33.3334 28.75 34.9653 24.8264 38.2292 21.5625C41.4931 18.2986 45.4167 16.6667 50 16.6667C54.5834 16.6667 58.507 18.2986 61.7709 21.5625C65.0347 24.8264 66.6667 28.75 66.6667 33.3334C66.6667 37.9167 65.0347 41.8403 61.7709 45.1042C58.507 48.3681 54.5834 50 50 50ZM16.6667 83.3334V71.6667C16.6667 69.3056 17.2743 67.1354 18.4896 65.1563C19.7049 63.1771 21.3195 61.6667 23.3334 60.625C27.6389 58.4722 32.0139 56.8577 36.4584 55.7813C40.9028 54.7049 45.4167 54.1667 50 54.1667C54.5834 54.1667 59.0972 54.7049 63.5417 55.7813C67.9861 56.8577 72.3611 58.4722 76.6667 60.625C78.6806 61.6667 80.2952 63.1771 81.5104 65.1563C82.7257 67.1354 83.3334 69.3056 83.3334 71.6667V83.3334H16.6667ZM25 75H75V71.6667C75 70.9028 74.8091 70.2084 74.4271 69.5834C74.0452 68.9584 73.5417 68.4722 72.9167 68.125C69.1667 66.25 65.382 64.8438 61.5625 63.9063C57.7431 62.9688 53.8889 62.5 50 62.5C46.1111 62.5 42.257 62.9688 38.4375 63.9063C34.6181 64.8438 30.8334 66.25 27.0834 68.125C26.4584 68.4722 25.9549 68.9584 25.5729 69.5834C25.191 70.2084 25 70.9028 25 71.6667V75ZM50 41.6667C52.2917 41.6667 54.2535 40.8507 55.8854 39.2188C57.5174 37.5868 58.3334 35.625 58.3334 33.3334C58.3334 31.0417 57.5174 29.0799 55.8854 27.4479C54.2535 25.816 52.2917 25 50 25C47.7084 25 45.7466 25.816 44.1146 27.4479C42.4827 29.0799 41.6667 31.0417 41.6667 33.3334C41.6667 35.625 42.4827 37.5868 44.1146 39.2188C45.7466 40.8507 47.7084 41.6667 50 41.6667Z" fill="#1D1B20"/>
</svg>
